<svg width="20" height="22" viewBox="0 0 20 22" fill="none" xmlns="http://www.w3.org/2000/svg">
<path d="M19.5664 16.8563C18.9421 16.3074 15.2807 13.8767 14.6721 13.9883C14.3864 14.0415 14.1679 14.2968 13.5829 15.0284C13.3123 15.3885 13.0152 15.7258 12.6943 16.0371C12.1063 15.8882 11.5371 15.667 10.9986 15.3781C8.88661 14.3002 7.18045 12.5109 6.15286 10.2965C5.87732 9.73196 5.66634 9.13523 5.52429 8.5188C5.82125 8.18234 6.14295 7.87087 6.48643 7.58725C7.18357 6.97395 7.42786 6.74631 7.47857 6.44527C7.585 5.80577 5.26429 1.96873 4.74286 1.31425C4.52429 1.04317 4.32571 0.861206 4.07143 0.861206C3.33429 0.861206 0 5.18349 0 5.74362C0 5.78929 0.0714285 10.2891 5.49214 16.0708C11.0071 21.7537 15.2993 21.8286 15.3429 21.8286C15.8771 21.8286 20 18.333 20 17.5602C20 17.2937 19.8264 17.0855 19.5664 16.8563ZM15 10.5961H16.4286C16.425 7.28903 13.8688 4.60908 10.7143 4.60539V6.10306C13.0802 6.10554 14.9976 8.11569 15 10.5961ZM18.5714 10.5961H20C19.9941 5.22224 15.8402 0.867384 10.7143 0.861206V2.35888C15.0516 2.36426 18.5663 6.049 18.5714 10.5961Z" fill="url(#paint0_linear_2153_977)"/>
<defs>
<linearGradient id="paint0_linear_2153_977" x1="0" y1="21.8286" x2="20.944" y2="1.8509" gradientUnits="userSpaceOnUse">
<stop stop-color="#6283FF"/>
<stop offset="1" stop-color="#0EDFF3"/>
</linearGradient>
</defs>
</svg>
