<svg width="60" height="56" viewBox="0 0 60 56" fill="none" xmlns="http://www.w3.org/2000/svg">
<path d="M14.2467 22.5382C11.8527 23.248 10.2117 25.4308 10.2093 27.9082V29.3848L0.29068 20.8786C-0.0603205 20.578 -0.0987205 20.053 0.20428 19.705C0.20428 19.705 0.20488 19.7038 0.20548 19.7038L17.1393 0.288351C17.4423 -0.0596486 17.9727 -0.0980486 18.3231 0.202551C18.3231 0.202551 18.3237 0.203151 18.3243 0.203751L22.9935 4.20575L11.0703 9.59255C9.80308 10.1704 9.24448 11.6548 9.82048 12.9142L14.2467 22.5382ZM11.3571 12.2206L15.9951 22.3048H22.4913C22.7589 22.3054 23.0265 22.327 23.2905 22.3689V8.92295C23.2905 7.53695 24.4239 6.41375 25.8219 6.41375H38.9883L36.4401 0.881751C36.2481 0.462951 35.7501 0.278151 35.3277 0.468351C35.3277 0.468351 35.3271 0.468351 35.3265 0.468351L11.7705 11.1172C11.3493 11.308 11.1639 11.8018 11.3565 12.2194C11.3565 12.22 11.3565 12.22 11.3571 12.2206ZM46.4919 14.7568H52.0623L45.8259 8.57735V14.0968C45.8283 14.4604 46.1253 14.7538 46.4919 14.7568ZM44.1423 8.08655V14.0968C44.1405 15.3832 45.1905 16.4277 46.4883 16.4296C46.4895 16.4296 46.4907 16.4296 46.4919 16.4296H52.5543V27.7689C51.2751 27.9429 50.0577 28.4218 49.0059 29.1639H31.8741C31.8447 29.1514 31.8159 29.1364 31.7889 29.1202C31.5105 28.9204 31.2519 28.6947 31.0173 28.4464L30.2511 27.7048H47.5755C48.0417 27.7048 48.4197 27.3309 48.4197 26.8689C48.4197 26.4069 48.0429 26.032 47.5767 26.032H29.9583C29.5827 26.0332 29.2521 26.2798 29.1483 26.638L26.8881 24.4515C26.3973 23.9512 25.8537 23.5048 25.2657 23.1208C25.1703 23.0626 25.0743 23.0092 24.9789 22.9552V8.92295C24.9801 8.46155 25.3569 8.08715 25.8225 8.08655H44.1423ZM29.1141 14.6656C29.1141 15.1276 29.4921 15.502 29.9577 15.502H41.1159C41.5821 15.502 41.9595 15.127 41.9589 14.665C41.9589 14.2036 41.5815 13.8298 41.1159 13.8292H29.9577C29.4921 13.8304 29.1147 14.2042 29.1141 14.6656ZM48.4185 22.8022C48.4185 22.3402 48.0405 21.9658 47.5749 21.9658H29.9583C29.4921 21.9658 29.1147 22.3408 29.1153 22.8028C29.1153 23.2642 29.4927 23.638 29.9583 23.6385H47.5755C48.0417 23.6385 48.4185 23.2642 48.4185 22.8022ZM29.9577 17.8996C29.4915 17.8996 29.1135 18.2733 29.1135 18.7353C29.1135 19.1973 29.4903 19.5724 29.9565 19.5724H47.5749C48.0411 19.5724 48.4191 19.1985 48.4191 18.7365C48.4191 18.2745 48.0423 17.8996 47.5761 17.8996H29.9577ZM60.0003 35.6584C59.9991 39.1318 57.1575 41.9457 53.6541 41.9445C50.1507 41.9433 47.3115 39.1264 47.3133 35.653C47.3151 32.1796 50.1561 29.3656 53.6595 29.3668C55.3407 29.3674 56.9535 30.0298 58.1427 31.2087C59.3343 32.3877 60.0021 33.9892 60.0003 35.6584ZM57.9513 32.4994C57.6249 32.173 57.0939 32.1706 56.7645 32.4939C56.7627 32.4958 56.7609 32.4976 56.7591 32.4994L52.1685 37.0467L50.5527 35.4417C50.2227 35.1153 49.6881 35.1159 49.3593 35.4436C49.0305 35.7711 49.0311 36.3004 49.3611 36.6268L51.5745 38.8209C51.9039 39.1461 52.4367 39.1461 52.7667 38.8209L57.9513 33.6814C58.2789 33.3544 58.2789 32.8264 57.9513 32.4994ZM53.6541 43.6222C54.5829 43.6222 55.5051 43.4644 56.3799 43.1548V50.9019C56.3721 53.4394 54.2979 55.4944 51.7383 55.5004H16.5387C13.9791 55.4944 11.9049 53.4399 11.8971 50.9019V27.9076C11.9001 25.7392 13.6719 23.9811 15.8589 23.9764H22.4919C23.1585 23.9794 23.8101 24.175 24.3669 24.5386C24.8541 24.8572 25.3041 25.2286 25.7091 25.6456L29.8383 29.6446C30.1587 29.9758 30.5121 30.274 30.8931 30.535C31.1859 30.7281 31.5285 30.8332 31.8801 30.8362H47.2641C44.5773 34.3354 45.2601 39.3309 48.7899 41.9949C50.1885 43.0503 51.8973 43.6216 53.6547 43.6222H53.6541ZM17.2557 43.7308C17.2557 44.1928 17.6337 44.5672 18.0993 44.5672H26.3235C26.7897 44.5672 27.1671 44.1922 27.1665 43.7302C27.1665 43.2688 26.7891 42.8949 26.3235 42.8943H18.0987C17.6343 42.8932 17.2563 43.2651 17.2551 43.7253C17.2551 43.7271 17.2551 43.729 17.2551 43.7308H17.2557ZM51.0213 49.4464C51.0213 48.9844 50.6433 48.6099 50.1777 48.6099H18.0993C17.6343 48.6099 17.2575 48.9837 17.2575 49.4445C17.2575 49.9053 17.6343 50.2791 18.0993 50.2791H50.1777C50.6427 50.2791 51.0201 49.9072 51.0213 49.4464Z" fill="url(#paint0_linear_2072_108)"/>
<defs>
<linearGradient id="paint0_linear_2072_108" x1="0" y1="28" x2="60" y2="28" gradientUnits="userSpaceOnUse">
<stop stop-color="#6283FF"/>
<stop offset="1" stop-color="#0EDFF3"/>
</linearGradient>
</defs>
</svg>
