<svg width="20" height="14" viewBox="0 0 20 14" fill="none" xmlns="http://www.w3.org/2000/svg">
<path d="M19.8238 1.26921L13.7582 7.10988L19.8238 12.9505C19.9335 12.7284 20 12.4829 20 12.2207V1.99907C20 1.73683 19.9335 1.49132 19.8238 1.26921ZM18.2422 0.295471H1.75781C1.48723 0.295471 1.23391 0.359943 1.00473 0.46621L8.75719 7.94173C9.44266 8.60606 10.5573 8.60606 11.2428 7.94173L18.9953 0.46621C18.7661 0.359943 18.5128 0.295471 18.2422 0.295471ZM0.176172 1.26921C0.0665234 1.49132 0 1.73683 0 1.99907V12.2207C0 12.4829 0.0665234 12.7285 0.176172 12.9505L6.24176 7.10988L0.176172 1.26921ZM12.9297 7.91288L12.0714 8.74473C10.9292 9.85165 9.07074 9.85165 7.92859 8.74473L7.07031 7.91288L1.00473 13.7535C1.23391 13.8598 1.48723 13.9243 1.75781 13.9243H18.2422C18.5128 13.9243 18.7661 13.8598 18.9953 13.7535L12.9297 7.91288Z" fill="url(#paint0_linear_2153_980)"/>
<defs>
<linearGradient id="paint0_linear_2153_980" x1="1.67638e-07" y1="13.9243" x2="18.5859" y2="-1.4176" gradientUnits="userSpaceOnUse">
<stop stop-color="#6283FF"/>
<stop offset="1" stop-color="#0EDFF3"/>
</linearGradient>
</defs>
</svg>
