<svg width="60" height="60" viewBox="0 0 60 60" fill="none" xmlns="http://www.w3.org/2000/svg">
<path d="M37.0318 31.875H8.90683C5.99923 31.875 3.63343 34.2408 3.63343 37.1484V44.1798C3.63343 47.0874 5.99923 49.4532 8.90683 49.4532H29.2726L35.788 55.9698C36.2956 56.4762 37.0558 56.6202 37.7038 56.3508C38.3614 56.079 38.7892 55.437 38.7892 54.7266V49.1532C40.8352 48.4266 42.3046 46.4718 42.3046 44.1798V37.1484C42.3046 34.2408 39.9388 31.875 37.0312 31.875H37.0318ZM15.9376 42.4218C14.9674 42.4218 14.1796 41.6346 14.1796 40.6638C14.1796 39.693 14.9668 38.9058 15.9376 38.9058C16.9084 38.9058 17.6956 39.693 17.6956 40.6638C17.6956 41.6346 16.9084 42.4218 15.9376 42.4218ZM22.969 42.4218C21.9988 42.4218 21.211 41.6346 21.211 40.6638C21.211 39.693 21.9982 38.9058 22.969 38.9058C23.9398 38.9058 24.727 39.693 24.727 40.6638C24.727 41.6346 23.9398 42.4218 22.969 42.4218ZM30.0004 42.4218C29.0302 42.4218 28.2424 41.6346 28.2424 40.6638C28.2424 39.693 29.0296 38.9058 30.0004 38.9058C30.9712 38.9058 31.7584 39.693 31.7584 40.6638C31.7584 41.6346 30.9712 42.4218 30.0004 42.4218ZM51.094 0H22.969C20.0614 0 17.6956 2.3658 17.6956 5.2734V12.3048C17.6956 14.5968 19.165 16.5516 21.211 17.2782V22.8516C21.211 23.562 21.6388 24.204 22.2964 24.4758C22.9444 24.7464 23.7052 24.6012 24.2122 24.0936L30.7276 17.5782H51.0934C54.001 17.5782 56.3668 15.2124 56.3668 12.3048V5.2734C56.3668 2.3658 54.0016 0 51.094 0ZM44.0632 10.5468H30.0004C29.029 10.5468 28.2424 9.7602 28.2424 8.7888C28.2424 7.8174 29.029 7.0308 30.0004 7.0308H44.0632C45.0346 7.0308 45.8212 7.8174 45.8212 8.7888C45.8212 9.7602 45.0346 10.5468 44.0632 10.5468ZM8.78923 17.5782C5.88163 17.5782 3.51583 15.2124 3.51583 12.3048C3.51583 9.3972 5.88163 7.0314 8.78923 7.0314C11.6968 7.0314 14.0626 9.3972 14.0626 12.3048C14.0626 15.2124 11.6968 17.5782 8.78923 17.5782ZM17.5786 24.6096V26.3676C17.5786 27.339 16.792 28.1256 15.8206 28.1256H1.75843C0.787027 28.1256 0.000427246 27.339 0.000427246 26.3676V24.6096C0.000427246 20.7318 3.15403 17.5782 7.03183 17.5782H10.5472C14.425 17.5782 17.5786 20.7318 17.5786 24.6096ZM51.2116 49.4532C48.304 49.4532 45.9382 47.0874 45.9382 44.1798C45.9382 41.2722 48.304 38.9064 51.2116 38.9064C54.1192 38.9064 56.485 41.2722 56.485 44.1798C56.485 47.0874 54.1192 49.4532 51.2116 49.4532ZM60.0004 56.4846V58.2426C60.0004 59.214 59.2138 60.0006 58.2424 60.0006H44.1796C43.2082 60.0006 42.4216 59.214 42.4216 58.2426V56.4846C42.4216 52.6068 45.5752 49.4532 49.453 49.4532H52.9684C56.8462 49.4532 60.0004 52.6068 60.0004 56.4846Z" fill="url(#paint0_linear_2072_116)"/>
<defs>
<linearGradient id="paint0_linear_2072_116" x1="0.000426771" y1="30" x2="60.0004" y2="30" gradientUnits="userSpaceOnUse">
<stop stop-color="#6283FF"/>
<stop offset="1" stop-color="#0EDFF3"/>
</linearGradient>
</defs>
</svg>
