<svg width="60" height="60" viewBox="0 0 60 60" fill="none" xmlns="http://www.w3.org/2000/svg">
<path d="M18.6604 3.23676V15.4645C18.6604 17.2627 17.2204 18.6414 15.4204 18.7013H3.24043C1.44043 18.7013 0.0604272 17.2627 0.000427246 15.4645V3.23676C0.000427246 1.43856 1.44043 0.0599401 3.24043 0H15.4804C17.2804 0 18.6604 1.43856 18.7204 3.23676H18.6604ZM15.4804 41.2987H3.24043C1.44043 41.2987 0.0604272 42.7373 0.000427246 44.5355V56.7632C0.000427246 58.5614 1.44043 59.9401 3.24043 60H15.4804C17.2804 60 18.6604 58.5614 18.7204 56.7632V44.5355C18.7204 42.7373 17.2804 41.3586 15.4804 41.2987ZM15.4804 20.6194H3.24043C1.44043 20.6194 0.000427246 22.0579 0.000427246 23.8561V36.0839C0.000427246 37.8821 1.44043 39.3207 3.24043 39.3207H15.4804C17.2804 39.3207 18.7204 37.8821 18.7204 36.0839V23.8561C18.7204 22.0579 17.2804 20.6194 15.4804 20.6194ZM60.0004 29.97C60.0004 34.7053 56.1604 38.5415 51.4204 38.5415C46.6804 38.5415 42.8404 34.7053 42.8404 29.97C42.8404 25.2348 46.6804 21.3986 51.4204 21.3986C56.1604 21.3986 60.0004 25.2348 60.0004 29.97ZM54.6004 27.6324C54.1804 27.2128 53.5204 27.2128 53.1004 27.6324L50.6404 30.0899L49.8004 29.2507C49.3804 28.8312 48.7204 28.8312 48.3004 29.2507C47.8804 29.6703 47.8804 30.3297 48.3004 30.7492L49.9204 32.3676C50.3404 32.7872 51.0004 32.7872 51.4204 32.3676L54.6604 29.1309C55.0804 28.7113 55.0804 28.0519 54.6604 27.6324H54.6004ZM42.8404 9.35065C42.8404 4.61538 46.6804 0.779221 51.4204 0.779221C56.1604 0.779221 60.0004 4.61538 60.0004 9.35065C60.0004 14.0859 56.1604 17.9221 51.4204 17.9221C46.6804 17.9221 42.8404 14.0859 42.8404 9.35065ZM48.2404 10.0699L49.8604 11.6883C50.2804 12.1079 50.9404 12.1079 51.3604 11.6883L54.6004 8.45155C55.0204 8.03197 55.0204 7.37263 54.6004 6.95305C54.1804 6.53347 53.5204 6.53347 53.1004 6.95305L50.6404 9.41059L49.8004 8.57143C49.3804 8.15185 48.7204 8.15185 48.3004 8.57143C47.8804 8.99101 47.8804 9.65035 48.3004 10.0699H48.2404ZM60.0004 50.5894C60.0004 55.3247 56.1604 59.1608 51.4204 59.1608C46.6804 59.1608 42.8404 55.3247 42.8404 50.5894C42.8404 45.8541 46.6804 42.018 51.4204 42.018C56.1604 42.018 60.0004 45.8541 60.0004 50.5894ZM52.9204 50.5894L54.3004 49.2108C54.7204 48.7912 54.7204 48.1319 54.3004 47.7123C53.8804 47.2927 53.2204 47.2927 52.8004 47.7123L51.4204 49.0909L50.0404 47.7123C49.6204 47.2927 48.9604 47.2927 48.5404 47.7123C48.1204 48.1319 48.1204 48.7912 48.5404 49.2108L49.9204 50.5894L48.5404 51.968C48.1204 52.3876 48.1204 53.047 48.5404 53.4665C48.9604 53.8861 49.6204 53.8861 50.0404 53.4665L51.4204 52.0879L52.8004 53.4665C53.2204 53.8861 53.8804 53.8861 54.3004 53.4665C54.7204 53.047 54.7204 52.3876 54.3004 51.968L52.9204 50.5894ZM37.7404 5.87413C37.3204 5.45455 36.6604 5.45455 36.2404 5.87413C35.8204 6.29371 35.8204 6.95305 36.2404 7.37263L37.0804 8.21179H21.9004C21.3004 8.21179 20.8204 8.69131 20.8204 9.29071C20.8204 9.89011 21.3004 10.3696 21.9004 10.3696H37.0804L36.2404 11.2088C35.8204 11.6284 35.8204 12.2877 36.2404 12.7073C36.6604 13.1269 37.3204 13.1269 37.7404 12.7073L40.4404 10.01C40.8604 9.59041 40.8604 8.93107 40.4404 8.51149L37.7404 5.81419V5.87413ZM37.7404 26.5534C37.3204 26.1339 36.6604 26.1339 36.2404 26.5534C35.8204 26.973 35.8204 27.6324 36.2404 28.0519L37.0804 28.8911H21.9004C21.3004 28.8911 20.8204 29.3706 20.8204 29.97C20.8204 30.5694 21.3004 31.049 21.9004 31.049H37.0804L36.2404 31.8881C35.8204 32.3077 35.8204 32.967 36.2404 33.3866C36.6604 33.8062 37.3204 33.8062 37.7404 33.3866L40.4404 30.6893C40.8604 30.2697 40.8604 29.6104 40.4404 29.1908L37.7404 26.4935V26.5534ZM37.7404 47.1728C37.3204 46.7532 36.6604 46.7532 36.2404 47.1728C35.8204 47.5924 35.8204 48.2517 36.2404 48.6713L37.0804 49.5105H21.9004C21.3004 49.5105 20.8204 49.99 20.8204 50.5894C20.8204 51.1888 21.3004 51.6683 21.9004 51.6683H37.0804L36.2404 52.5075C35.8204 52.9271 35.8204 53.5864 36.2404 54.006C36.6604 54.4256 37.3204 54.4256 37.7404 54.006L40.4404 51.3087C40.8604 50.8891 40.8604 50.2298 40.4404 49.8102L37.7404 47.1129V47.1728Z" fill="url(#paint0_linear_2072_114)"/>
<defs>
<linearGradient id="paint0_linear_2072_114" x1="0.000427246" y1="30" x2="60.0004" y2="30" gradientUnits="userSpaceOnUse">
<stop stop-color="#6283FF"/>
<stop offset="1" stop-color="#0EDFF3"/>
</linearGradient>
</defs>
</svg>
